<svg xmlns="http://www.w3.org/2000/svg" width="1200" height="630" viewBox="0 0 1200 630">
  <defs>
    <linearGradient id="g1" x1="0" y1="0" x2="1" y2="1">
      <stop offset="0" stop-color="#6C63FF" stop-opacity="0.75"/>
      <stop offset="0.55" stop-color="#00D1B2" stop-opacity="0.35"/>
      <stop offset="1" stop-color="#FF6B6B" stop-opacity="0.35"/>
    </linearGradient>
    <radialGradient id="g2" cx="25%" cy="10%" r="70%">
      <stop offset="0" stop-color="#FFFFFF" stop-opacity="0.12"/>
      <stop offset="1" stop-color="#FFFFFF" stop-opacity="0"/>
    </radialGradient>
    <filter id="blur" x="-20%" y="-20%" width="140%" height="140%">
      <feGaussianBlur stdDeviation="18" />
    </filter>
  </defs>

  <rect width="1200" height="630" fill="#0F172A"/>
  <rect x="0" y="0" width="1200" height="630" fill="url(#g1)"/>
  <circle cx="260" cy="110" r="220" fill="url(#g2)" filter="url(#blur)"/>
  <circle cx="980" cy="180" r="240" fill="url(#g2)" filter="url(#blur)"/>
  <circle cx="720" cy="560" r="260" fill="url(#g2)" filter="url(#blur)"/>

  <g fill="none" stroke="#FFFFFF" stroke-opacity="0.14">
    <path d="M120 420 C 280 340, 420 500, 600 420 C 780 340, 920 500, 1080 420" stroke-width="2"/>
    <path d="M120 455 C 280 375, 420 535, 600 455 C 780 375, 920 535, 1080 455" stroke-width="2"/>
  </g>

  <g>
    <rect x="110" y="150" width="980" height="330" rx="26" fill="#FFFFFF" fill-opacity="0.06" stroke="#FFFFFF" stroke-opacity="0.12"/>
    <text x="170" y="285" font-family="Inter, ui-sans-serif, system-ui, sans-serif" font-size="72" font-weight="800" fill="#F8FAFC">NeuroAI</text>
    <text x="170" y="345" font-family="Inter, ui-sans-serif, system-ui, sans-serif" font-size="30" font-weight="600" fill="#E2E8F0" opacity="0.95">AI SaaS " Tools Directory " Dashboard</text>
    <text x="170" y="402" font-family="Inter, ui-sans-serif, system-ui, sans-serif" font-size="22" font-weight="500" fill="#CBD5E1" opacity="0.9">Modern, glassy UI with gradients, dark mode, and reusable components.</text>
  </g>
</svg>

