<svg width="1200" height="720" viewBox="0 0 1200 720" fill="none" xmlns="http://www.w3.org/2000/svg">
  <rect width="1200" height="720" rx="32" fill="#0A0F1D"/>
  <rect x="24" y="24" width="1152" height="672" rx="24" fill="#101A30" stroke="#2A3859"/>
  <rect x="66" y="86" width="260" height="548" rx="20" fill="#131F38"/>
  <rect x="96" y="126" width="200" height="14" rx="7" fill="#94A3B8" fill-opacity="0.5"/>
  <rect x="96" y="168" width="170" height="42" rx="14" fill="#6C63FF"/>
  <rect x="96" y="224" width="200" height="12" rx="6" fill="#94A3B8" fill-opacity="0.4"/>
  <rect x="96" y="252" width="180" height="12" rx="6" fill="#94A3B8" fill-opacity="0.28"/>
  <rect x="350" y="86" width="784" height="66" rx="18" fill="#131F38"/>
  <rect x="390" y="111" width="280" height="16" rx="8" fill="#C7D2FE"/>
  <rect x="1040" y="106" width="60" height="26" rx="10" fill="#00D1B2" fill-opacity="0.3"/>
  <rect x="350" y="172" width="784" height="462" rx="20" fill="#111B31"/>
  <rect x="382" y="206" width="228" height="186" rx="16" fill="#1A2743"/>
  <rect x="628" y="206" width="228" height="186" rx="16" fill="#1A2743"/>
  <rect x="874" y="206" width="228" height="186" rx="16" fill="#1A2743"/>
  <rect x="382" y="410" width="228" height="186" rx="16" fill="#1A2743"/>
  <rect x="628" y="410" width="228" height="186" rx="16" fill="#1A2743"/>
  <rect x="874" y="410" width="228" height="186" rx="16" fill="#1A2743"/>
  <circle cx="496" cy="278" r="36" fill="url(#g1)"/>
  <circle cx="742" cy="278" r="36" fill="url(#g1)"/>
  <circle cx="988" cy="278" r="36" fill="url(#g1)"/>
  <defs>
    <linearGradient id="g1" x1="460" y1="242" x2="532" y2="314" gradientUnits="userSpaceOnUse">
      <stop stop-color="#6C63FF"/>
      <stop offset="1" stop-color="#00D1B2"/>
    </linearGradient>
  </defs>
</svg>
