<svg width="1200" height="720" viewBox="0 0 1200 720" fill="none" xmlns="http://www.w3.org/2000/svg">
  <rect width="1200" height="720" rx="32" fill="#0B1120"/>
  <rect x="24" y="24" width="1152" height="672" rx="24" fill="#0F1A31" stroke="#2E3D63"/>
  <rect x="72" y="90" width="738" height="548" rx="20" fill="#111E38"/>
  <rect x="848" y="90" width="282" height="548" rx="20" fill="#141F36"/>
  <rect x="106" y="128" width="380" height="48" rx="16" fill="#EEF2FF"/>
  <rect x="106" y="194" width="300" height="18" rx="9" fill="#94A3B8" fill-opacity="0.52"/>
  <rect x="106" y="226" width="420" height="16" rx="8" fill="#94A3B8" fill-opacity="0.36"/>
  <rect x="106" y="272" width="136" height="40" rx="12" fill="#6C63FF"/>
  <rect x="258" y="272" width="124" height="40" rx="12" fill="#00D1B2" fill-opacity="0.25"/>
  <rect x="106" y="348" width="670" height="120" rx="16" fill="#1A2745"/>
  <rect x="106" y="486" width="670" height="120" rx="16" fill="#1A2745"/>
  <rect x="878" y="126" width="220" height="24" rx="12" fill="#C7D2FE"/>
  <rect x="878" y="170" width="180" height="14" rx="7" fill="#94A3B8" fill-opacity="0.45"/>
  <rect x="878" y="206" width="220" height="112" rx="14" fill="#1A2745"/>
  <rect x="878" y="338" width="220" height="44" rx="14" fill="#6C63FF"/>
  <rect x="878" y="396" width="220" height="44" rx="14" fill="#1A2745"/>
  <rect x="878" y="454" width="220" height="44" rx="14" fill="#1A2745"/>
</svg>
